<svg xmlns="http://www.w3.org/2000/svg" width="31" height="31" viewBox="0 0 31 31" fill="none">
  <g clip-path="url(#clip0_157_134)">
    <path d="M15.5 10.25C13.5222 10.25 11.5888 10.8365 9.9443 11.9353C8.29981 13.0341 7.01809 14.5959 6.26121 16.4232C5.50433 18.2504 5.3063 20.2611 5.69215 22.2009C6.078 24.1407 7.03041 25.9225 8.42894 27.3211C9.82746 28.7196 11.6093 29.672 13.5491 30.0579C15.4889 30.4437 17.4996 30.2457 19.3268 29.4888C21.1541 28.7319 22.7159 27.4502 23.8147 25.8057C24.9135 24.1612 25.5 22.2278 25.5 20.25C25.5 18.9368 25.2413 17.6364 24.7388 16.4232C24.2363 15.2099 23.4997 14.1075 22.5711 13.1789C21.6425 12.2503 20.5401 11.5138 19.3268 11.0112C18.1136 10.5087 16.8132 10.25 15.5 10.25ZM15.5 12.25C17.5547 12.2492 19.5298 13.0449 21.01 14.47C19.482 15.3662 17.8629 16.097 16.18 16.65C15.3425 15.2068 14.3823 13.8384 13.31 12.56C14.022 12.355 14.7591 12.2507 15.5 12.25ZM11.39 13.4C12.4377 14.5985 13.378 15.8868 14.2 17.25C12.2371 17.7374 10.2225 17.9859 8.2 17.99H7.84C8.40721 16.0696 9.67394 14.4318 11.39 13.4ZM9.5 25.56C8.19876 24.0988 7.48608 22.2066 7.5 20.25C7.5 20.15 7.5 20.05 7.5 19.96H8.18C10.5474 19.9388 12.9014 19.6025 15.18 18.96C15.5 19.57 15.8 20.2 16.09 20.85C14.5315 21.3994 13.08 22.2148 11.8 23.26L11.5 23.5C10.7871 24.1402 10.1189 24.8285 9.5 25.56ZM15.5 28.25C13.9061 28.2535 12.3482 27.7761 11.03 26.88C11.5168 26.3216 12.0378 25.7939 12.59 25.3L12.91 25.03C14.0932 24.0349 15.449 23.2655 16.91 22.76C17.5113 24.386 17.9795 26.0582 18.31 27.76C17.4098 28.0887 16.4583 28.2546 15.5 28.25ZM20.13 26.76C19.8028 25.2466 19.3752 23.7566 18.85 22.3H19.19C19.2294 22.2903 19.2706 22.2903 19.31 22.3H19.42H19.52H20C21.0524 22.303 22.0968 22.4822 23.09 22.83C22.5443 24.4204 21.5079 25.7964 20.13 26.76ZM20 20.25C19.79 20.25 19.58 20.25 19.38 20.25C19.2505 20.2337 19.1195 20.2337 18.99 20.25C18.7182 20.2667 18.4477 20.3001 18.18 20.35H18.08C17.79 19.68 17.49 19.03 17.16 18.35C18.9506 17.7351 20.6704 16.9305 22.29 15.95C23.0934 17.2394 23.5131 18.7309 23.5 20.25C23.5 20.42 23.5 20.59 23.5 20.76C22.3667 20.4102 21.186 20.2382 20 20.25Z" fill="#5671A6"/>
  </g>
  <defs>
    <clipPath id="clip0_157_134">
      <rect width="30" height="30" fill="white" transform="translate(0.5 0.25)"/>
    </clipPath>
  </defs>
</svg>