<svg xmlns="http://www.w3.org/2000/svg" width="31" height="31" viewBox="0 0 31 31" fill="none">
  <g clip-path="url(#clip0_157_130)">
    <path d="M20.84 13.71C20.6027 13.71 20.3707 13.7804 20.1733 13.9122C19.976 14.0441 19.8222 14.2315 19.7313 14.4508C19.6405 14.6701 19.6168 14.9113 19.6631 15.1441C19.7094 15.3769 19.8236 15.5907 19.9915 15.7585C20.1593 15.9264 20.3731 16.0406 20.6059 16.0869C20.8387 16.1332 21.0799 16.1095 21.2992 16.0187C21.5185 15.9278 21.7059 15.774 21.8378 15.5767C21.9696 15.3793 22.04 15.1473 22.04 14.91C22.04 14.5917 21.9136 14.2865 21.6885 14.0615C21.4635 13.8364 21.1583 13.71 20.84 13.71ZM25.44 16.13C25.4206 15.3003 25.2652 14.4794 24.98 13.7C24.7257 13.0331 24.33 12.4293 23.82 11.93C23.3248 11.4174 22.7196 11.0242 22.05 10.78C21.2727 10.4862 20.4508 10.3272 19.62 10.31C18.56 10.25 18.22 10.25 15.5 10.25C12.78 10.25 12.44 10.25 11.38 10.31C10.5492 10.3272 9.72734 10.4862 8.95 10.78C8.28168 11.0266 7.67693 11.4196 7.18 11.93C6.66743 12.4252 6.27418 13.0304 6.03 13.7C5.73616 14.4773 5.57721 15.2992 5.56 16.13C5.5 17.19 5.5 17.53 5.5 20.25C5.5 22.97 5.5 23.31 5.56 24.37C5.57721 25.2008 5.73616 26.0227 6.03 26.8C6.27418 27.4696 6.66743 28.0748 7.18 28.57C7.67693 29.0804 8.28168 29.4734 8.95 29.72C9.72734 30.0138 10.5492 30.1728 11.38 30.19C12.44 30.25 12.78 30.25 15.5 30.25C18.22 30.25 18.56 30.25 19.62 30.19C20.4508 30.1728 21.2727 30.0138 22.05 29.72C22.7196 29.4758 23.3248 29.0826 23.82 28.57C24.3322 28.0726 24.7283 27.4682 24.98 26.8C25.2652 26.0206 25.4206 25.1997 25.44 24.37C25.44 23.31 25.5 22.97 25.5 20.25C25.5 17.53 25.5 17.19 25.44 16.13ZM23.64 24.25C23.6327 24.8848 23.5178 25.5137 23.3 26.11C23.1403 26.5452 22.8839 26.9384 22.55 27.26C22.2256 27.5905 21.8332 27.8464 21.4 28.01C20.8037 28.2278 20.1748 28.3427 19.54 28.35C18.54 28.4 18.17 28.41 15.54 28.41C12.91 28.41 12.54 28.41 11.54 28.35C10.8809 28.3623 10.2246 28.2609 9.6 28.05C9.18578 27.8781 8.81136 27.6228 8.5 27.3C8.16809 26.9787 7.91484 26.5852 7.76 26.15C7.51586 25.5452 7.38044 24.9019 7.36 24.25C7.36 23.25 7.3 22.88 7.3 20.25C7.3 17.62 7.3 17.25 7.36 16.25C7.36448 15.6011 7.48295 14.9579 7.71 14.35C7.88605 13.9279 8.15627 13.5517 8.5 13.25C8.80381 12.9062 9.17929 12.6331 9.6 12.45C10.2096 12.23 10.852 12.1151 11.5 12.11C12.5 12.11 12.87 12.05 15.5 12.05C18.13 12.05 18.5 12.05 19.5 12.11C20.1348 12.1173 20.7637 12.2322 21.36 12.45C21.8144 12.6187 22.2223 12.8928 22.55 13.25C22.8777 13.5572 23.1338 13.9327 23.3 14.35C23.5223 14.9589 23.6373 15.6018 23.64 16.25C23.69 17.25 23.7 17.62 23.7 20.25C23.7 22.88 23.69 23.25 23.64 24.25ZM15.5 15.12C14.4858 15.122 13.495 15.4245 12.6527 15.9894C11.8103 16.5543 11.1544 17.3562 10.7676 18.2938C10.3809 19.2313 10.2807 20.2625 10.4798 21.2569C10.6789 22.2514 11.1682 23.1645 11.8861 23.881C12.6039 24.5974 13.518 25.085 14.5129 25.2821C15.5077 25.4793 16.5387 25.3771 17.4755 24.9885C18.4123 24.6 19.2129 23.9424 19.7761 23.099C20.3394 22.2556 20.64 21.2642 20.64 20.25C20.6413 19.5751 20.5092 18.9066 20.2512 18.283C19.9933 17.6593 19.6146 17.0928 19.1369 16.6161C18.6592 16.1393 18.0919 15.7617 17.4678 15.5049C16.8436 15.2482 16.1749 15.1174 15.5 15.12ZM15.5 23.58C14.8414 23.58 14.1976 23.3847 13.65 23.0188C13.1023 22.6529 12.6755 22.1328 12.4235 21.5243C12.1714 20.9159 12.1055 20.2463 12.234 19.6003C12.3625 18.9544 12.6796 18.361 13.1453 17.8953C13.611 17.4296 14.2044 17.1125 14.8503 16.984C15.4963 16.8555 16.1659 16.9214 16.7743 17.1735C17.3828 17.4255 17.9029 17.8523 18.2688 18.4C18.6347 18.9476 18.83 19.5914 18.83 20.25C18.83 20.6873 18.7439 21.1203 18.5765 21.5243C18.4092 21.9284 18.1639 22.2954 17.8547 22.6047C17.5454 22.9139 17.1784 23.1592 16.7743 23.3265C16.3703 23.4939 15.9373 23.58 15.5 23.58Z" fill="#5671A6"/>
  </g>
  <defs>
    <clipPath id="clip0_157_130">
      <rect width="30" height="30" fill="white" transform="translate(0.5 0.25)"/>
    </clipPath>
  </defs>
</svg>